# xmcd
#
# Track frame offsets: 
#        150
#        16830
#        31086
#        45676
#        61875
#        79641
#        98849
#        119520
#        138248
#        155738
#        171387
#        187349
#        203085
#        219089
#        235671
#        251480
#        266983
#        283534
#        308592
#        326031
#
# Disc length: 4585 seconds
#
# Revision: 0
# Processed by: cddbd v1.5.2PL0 Copyright (c) Steve Scherf et al.
# Submitted via: ExactAudioCopy v0.99pb4
#
DISCID=1811e714
DTITLE=Various Artist - HP201045
DYEAR=2010
DGENRE=Top 40
TTITLE0=Guster - Do You Love Me
TTITLE1=Kris Allen - Alright With Me
TTITLE2=Ingrid Michaelson - Parachute
TTITLE3=David Archuleta - Falling Stars
TTITLE4=Cody Simpson feat Flo Rida - I Yi Yi
TTITLE5=Black Eyed Peas - The Time (Dirty Bit) [Radio]
TTITLE6=Yung Joc - Yea Boy [Clean]
TTITLE7=Chris Brown - No Bull [Clean]
TTITLE8=Bow Wow feat Chris Brown - Ain't Thinkin' Bout You [Xtra Clean
TTITLE8=]
TTITLE9=Snoop Dogg feat Marty James - New Year's Eve
TTITLE10=Ginuwine - What Could've Been
TTITLE11=Josh Thompson - Won't Be Lonely Long [Single Edit]
TTITLE12=Chuck Wicks - Old School [Single Edit]
TTITLE13=Jonathan Tyler and The Northern Lights - Gypsy Woman
TTITLE14=Mumford And Sons - The Cave [Radio Edit]
TTITLE15=Switchfoot - Bullet Soul
TTITLE16=Nelly Furtado - Night Is Young [Manhattan Clique Radio Edit]
TTITLE17=Katy Perry - Peacock [Cory Enemy and Mia Moretti Vocal Mix]
TTITLE18=Rihanna - Only Girl (In The World0 [Bimbo Jones Radio Mix]
TTITLE19=Natalie Grant - Your Great Name [Acoustic Edit]
EXTD=
EXTT0=
EXTT1=
EXTT2=
EXTT3=
EXTT4=
EXTT5=
EXTT6=
EXTT7=
EXTT8=
EXTT9=
EXTT10=
EXTT11=
EXTT12=
EXTT13=
EXTT14=
EXTT15=
EXTT16=
EXTT17=
EXTT18=
EXTT19=
PLAYORDER=
